<?xml version="1.0" encoding="UTF-8"?>
<svg width="24px" height="24px" viewBox="0 0 24 24" version="1.1" xmlns="http://www.w3.org/2000/svg" xmlns:xlink="http://www.w3.org/1999/xlink">
    <g id="atoms/icons/status" stroke="none" stroke-width="1" fill="none" fill-rule="evenodd">
        <path d="M12,2 C6.48421059,2 2,6.48421059 2,12 C2,17.5157897 6.48421059,22 12,22 C17.5157897,22 22,17.5157897 22,12 C22,6.48421059 17.5157897,2 12,2 Z M17.6000002,12.9473686 L16.0842107,12.9473686 L14.6105265,15.894737 C14.4210528,16.2105265 14.1052633,16.4210528 13.7473686,16.4210528 C13.3894739,16.4210528 13.0526317,16.2105265 12.9052633,15.894737 L10.2526317,10.6526317 L9.36842116,12.4210528 C9.20000011,12.7368423 8.88421063,12.9473686 8.52631589,12.9473686 L6.4210527,12.9473686 C5.8947369,12.9473686 5.47368426,12.5263159 5.47368426,12.0000001 C5.47368426,11.4736844 5.8947369,11.0526317 6.4210527,11.0526317 L7.93684219,11.0526317 L9.41052643,8.10526325 C9.7263159,7.47368429 10.7789475,7.47368429 11.094737,8.10526325 L13.726316,13.3473686 L14.6315791,11.5578949 C14.8000002,11.2421054 15.1157897,11.0315791 15.4736843,11.0315791 L17.5789476,11.0315791 C18.1052634,11.0315791 18.526316,11.4526317 18.526316,11.9789475 C18.526316,12.5052633 18.126316,12.9473686 17.6000002,12.9473686 Z" id="Shape" fill="#000000"></path>
    </g>
</svg>