<?xml version="1.0" encoding="UTF-8"?>
<svg width="24px" height="24px" viewBox="0 0 24 24" version="1.1" xmlns="http://www.w3.org/2000/svg" xmlns:xlink="http://www.w3.org/1999/xlink">
    <g id="atoms/icons/document.edit" stroke="none" stroke-width="1" fill="none" fill-rule="evenodd">
        <rect id="Rectangle" x="0" y="0" width="24" height="24"></rect>
        <path d="M20,2 L20.0010256,13.7737636 C19.8940523,13.7579283 19.785853,13.75 19.6768999,13.75 C19.0798279,13.75 18.5073953,13.9880026 18.086292,14.4113005 L14.0951459,18.4236178 L13.591307,18.904128 L13.4609253,19.0497508 L13.4379195,19.0798901 L13.3761429,19.1685158 C13.2854103,19.311478 13.21998,19.4691827 13.1828924,19.6347207 L12.7817005,21.4926244 L12.7584069,21.6462836 L12.7548634,21.6863371 L12.7500483,21.8074783 C12.7506205,21.8726 12.7555499,21.9372795 12.7646839,22.0011188 L4,22 L4,2 L20,2 Z M19.6768999,15 C19.91487,15 20.1440102,15.0853764 20.3234234,15.2391251 L20.38133,15.2928837 L20.6926362,15.6042843 C20.8903147,15.793167 21.0014802,16.0551638 21.0000146,16.3286138 C20.9985983,16.5772047 20.9042138,16.8153015 20.7369871,16.9967976 L16.6935486,21.0418171 L16.1906693,21.5488411 C16.1718763,21.5659567 16.1503286,21.5796118 16.1270291,21.5892844 L16.0908917,21.6007412 L14.2430099,22.0000128 L14.1991077,22.0000128 C14.1461841,22.000618 14.0954509,21.9788686 14.059419,21.9400879 C14.0214194,21.9013611 14.0004678,21.8497326 14,21.7964949 L14.0035436,21.7564415 L14.4026541,19.9079997 C14.4082121,19.8831919 14.4180122,19.8596346 14.4315326,19.8383311 L14.4545385,19.8081918 L14.9813644,19.3051601 L18.9724698,15.2928837 C19.1589786,15.1054029 19.4124887,15 19.6768999,15 Z M15,9 L9,9 L9,10.5 L15,10.5 L15,9 Z M17,6 L7,6 L7,7.5 L17,7.5 L17,6 Z" id="document.edit" fill="#000000"></path>
    </g>
</svg>