<?xml version="1.0" encoding="UTF-8"?>
<svg width="8px" height="8px" viewBox="0 0 8 8" version="1.1" xmlns="http://www.w3.org/2000/svg" xmlns:xlink="http://www.w3.org/1999/xlink">
    <g id="down" stroke="none" stroke-width="1" fill="none" fill-rule="evenodd">
        <path d="M0.789010884,0.707661161 C0.789099479,1.09626322 1.10420327,1.41136193 1.49278206,1.411421 L5.59335437,1.41145053 L0.206142701,6.79857541 C-0.0687388433,7.07345253 -0.0686797798,7.51907948 0.206113169,7.793868 C0.480965182,8.06871559 0.926540251,8.06871559 1.2014218,7.79383847 L6.59090741,2.40443968 L6.59093694,6.59850102 C6.59099601,6.98707354 6.90612933,7.30220179 7.29470812,7.30226085 C7.68340503,7.30220179 7.99844976,6.98716214 7.99844976,6.59853055 L7.9983907,0.892497417 C7.9983907,0.863025203 7.99602815,0.83402549 7.99242528,0.80555734 C8.02369941,0.593138873 7.95819798,0.369055551 7.79468067,0.205540876 C7.63618376,0.0470465185 7.42086776,-0.0194874461 7.21426362,0.00490538779 C7.2090365,0.00469866886 7.20404564,0.00413757462 7.19878899,0.00413757462 L1.49272299,0.00413757462 C1.1042328,0.00398991824 0.789069947,0.319147695 0.789010884,0.707661161 Z" id="Path" fill="#000000" fill-rule="nonzero" transform="translate(4.000000, 4.000000) scale(1, -1) translate(-4.000000, -4.000000) "></path>
    </g>
</svg>