<?xml version="1.0" encoding="UTF-8"?>
<svg width="24px" height="24px" viewBox="0 0 24 24" version="1.1" xmlns="http://www.w3.org/2000/svg" xmlns:xlink="http://www.w3.org/1999/xlink">
    <title>Emergency Contact</title>
    <g id="emergency.contact" stroke="none" stroke-width="1" fill="#444444" fill-rule="evenodd">
        <path d="M7.5,3 C8.05,3 8.5,3.45 8.5,4 C8.5,5.25 8.7,6.45 9.07,7.57 C9.18,7.92 9.1,8.31 8.82,8.59 L6.62,10.79 C8.06,13.62 10.38,15.93 13.21,17.38 L15.41,15.18 C15.68,14.91 16.08,14.82 16.43,14.94 C17.55,15.31 18.76,15.51 20,15.51 C20.55,15.51 21,15.96 21,16.51 L21,20 C21,20.55 20.55,21 20,21 C10.61,21 3,13.39 3,4 C3,3.45 3.45,3 4,3 L7.5,3 Z M18,1 C20.7614237,1 23,3.23857625 23,6 C23,8.76142375 20.7614237,11 18,11 C15.2385763,11 13,8.76142375 13,6 C13,3.23857625 15.2385763,1 18,1 Z M18.6806723,3 L17.2815126,3 L17.2815126,5.33193277 L15,5.33193277 L15,6.69327731 L17.2815126,6.69327731 L17.2815126,9 L18.6806723,9 L18.6806723,6.69327731 L21,6.69327731 L21,5.33193277 L18.6806723,5.33193277 L18.6806723,3 Z" id="Shape" fill="#000000"></path>
    </g>
</svg>