<?xml version="1.0" encoding="UTF-8"?>
<svg width="50px" height="50px" viewBox="0 0 50 50" version="1.1" xmlns="http://www.w3.org/2000/svg" xmlns:xlink="http://www.w3.org/1999/xlink">
    <title>Logo</title>
    <g id="atoms/branding/logos/icon.fc.logo" stroke="none" stroke-width="1" fill="none" fill-rule="evenodd">
        <path d="M24.9375691,0.274862637 C38.688674,0.274862637 49.8756906,11.4004121 49.8756906,25.0754121 C49.8756906,38.7504121 38.688674,49.8759615 24.9375691,49.8759615 C11.1870166,49.8759615 3.23296945e-13,38.7504121 3.23296945e-13,25.0754121 C3.23296945e-13,11.4004121 11.1870166,0.274862637 24.9375691,0.274862637 Z M44.9176796,16.8614011 L43.8860321,16.9803493 C32.37141,18.3564805 15.5132434,21.9833953 8.25635359,29.5086538 C6.86243094,30.9589286 5.92541436,32.4289835 5.23121547,33.9086538 C8.62707182,41.3712912 16.1798343,46.5792582 24.9375691,46.5792582 C36.8604972,46.5792582 46.5607735,36.9325549 46.5607735,25.0754121 C46.5607735,22.1674451 45.9743094,19.3938187 44.9176796,16.8614011 Z M26.2388398,27.3091484 C27.420297,27.3091484 28.6911015,27.7094853 29.4642284,28.4689605 L29.6120442,28.6256319 L28.1355249,30.0937637 C27.7280663,29.5368956 27.0026519,29.2712363 26.3153591,29.2712363 C24.8007182,29.2712363 23.7189503,30.4357967 23.7189503,32.0179396 C23.7189503,33.6509066 24.7753039,34.7649176 26.2769613,34.7649176 C27.0643816,34.7649176 27.6997473,34.4414115 28.0931074,33.9733126 L28.1863536,33.8533791 L29.7009945,35.2709615 C28.911768,36.1825 27.7153591,36.7520055 26.2007182,36.7520055 C23.4261326,36.7520055 21.3512707,34.8281044 21.3512707,32.0179396 C21.3512707,29.1445879 23.4896685,27.3091484 26.2388398,27.3091484 Z M36.7810773,27.5495055 L40.5230663,36.5115934 L38.104558,36.5115934 L37.404558,34.7522527 L33.9172652,34.7522527 L33.2553867,36.5115934 L30.8877072,36.5115934 L34.6678177,27.5495055 L36.7810773,27.5495055 Z M19.978895,27.5495604 L19.978895,29.3976374 L16.1985083,29.3976374 L16.1985083,31.2457143 L19.6858011,31.2457143 L19.6858011,33.0306044 L16.1985083,33.0306044 L16.1985083,36.5116484 L14.0474033,36.5116484 L14.0474033,27.5495604 L19.978895,27.5495604 Z M35.686326,29.9420879 L34.5410221,33.0179121 L36.8064917,33.0179121 L35.686326,29.9420879 Z M24.9375691,3.57156593 C13.0149171,3.57156593 3.31491713,13.2179945 3.31491713,25.0754121 C3.31491713,25.9614011 3.37541436,26.8325549 3.48066298,27.6907967 C6.14972376,21.6938187 15.139779,19.1396978 22.2743094,17.8836538 C21.010221,17.1778846 20.1524862,15.8320055 20.1524862,14.2880495 C20.1524862,12.0086538 22.0154696,10.1633242 24.3077348,10.1633242 C26.5922652,10.1633242 28.4555249,12.0086538 28.4555249,14.2880495 C28.4555249,15.3839286 28.0265193,16.3762363 27.3243094,17.1188187 C33.0533149,16.3798077 38.9718232,16.0732143 44.6977901,16.3589286 C41.3279006,8.83365385 33.7414365,3.57156593 24.9375691,3.57156593 Z" id="Shape" fill="#000000"></path>
    </g>
</svg>