<?xml version="1.0" encoding="UTF-8"?>
<svg width="30px" height="30px" viewBox="0 0 30 30" version="1.1" xmlns="http://www.w3.org/2000/svg" xmlns:xlink="http://www.w3.org/1999/xlink">
    <title>Reports</title>
    <g id="Reports" stroke="none" stroke-width="1" fill="none" fill-rule="evenodd">
        <path d="M27,-0.201000422 C27.8974627,-0.201000422 28.625,0.52653686 28.625,1.42399958 L28.625,28.4239996 C28.625,29.3214623 27.8974627,30.0489996 27,30.0489996 L23,30.0489996 C22.1025373,30.0489996 21.375,29.3214623 21.375,28.4239996 L21.375,1.42399958 C21.375,0.52653686 22.1025373,-0.201000422 23,-0.201000422 L27,-0.201000422 Z M17,7.79899958 C17.8974627,7.79899958 18.625,8.52653686 18.625,9.42399958 L18.625,28.4239996 C18.625,29.3214623 17.8974627,30.0489996 17,30.0489996 L13,30.0489996 C12.1025373,30.0489996 11.375,29.3214623 11.375,28.4239996 L11.375,9.42399958 C11.375,8.52653686 12.1025373,7.79899958 13,7.79899958 L17,7.79899958 Z M7,13.7989996 C7.89746272,13.7989996 8.625,14.5265369 8.625,15.4239996 L8.625,28.4239996 C8.625,29.3214623 7.89746272,30.0489996 7,30.0489996 L3,30.0489996 C2.10253728,30.0489996 1.375,29.3214623 1.375,28.4239996 L1.375,15.4239996 C1.375,14.5265369 2.10253728,13.7989996 3,13.7989996 L7,13.7989996 Z M27,1.04899958 L23,1.04899958 C22.7928932,1.04899958 22.625,1.2168928 22.625,1.42399958 L22.625,28.4239996 C22.625,28.6311064 22.7928932,28.7989996 23,28.7989996 L27,28.7989996 C27.2071068,28.7989996 27.375,28.6311064 27.375,28.4239996 L27.375,1.42399958 C27.375,1.2168928 27.2071068,1.04899958 27,1.04899958 Z M17,9.04899958 L13,9.04899958 C12.7928932,9.04899958 12.625,9.2168928 12.625,9.42399958 L12.625,28.4239996 C12.625,28.6311064 12.7928932,28.7989996 13,28.7989996 L17,28.7989996 C17.2071068,28.7989996 17.375,28.6311064 17.375,28.4239996 L17.375,9.42399958 C17.375,9.2168928 17.2071068,9.04899958 17,9.04899958 Z M7,15.0489996 L3,15.0489996 C2.79289322,15.0489996 2.625,15.2168928 2.625,15.4239996 L2.625,28.4239996 C2.625,28.6311064 2.79289322,28.7989996 3,28.7989996 L7,28.7989996 C7.20710678,28.7989996 7.375,28.6311064 7.375,28.4239996 L7.375,15.4239996 C7.375,15.2168928 7.20710678,15.0489996 7,15.0489996 Z" id="Shape" fill="#FFFFFF"></path>
    </g>
</svg>