<?xml version="1.0" encoding="UTF-8"?>
<svg width="24px" height="24px" viewBox="0 0 24 24" version="1.1" xmlns="http://www.w3.org/2000/svg" xmlns:xlink="http://www.w3.org/1999/xlink">
    <g id="atoms/icons/list" stroke="none" stroke-width="1" fill="current" fill-rule="evenodd">
        <path d="M21,16.5 L21,19.5 L8,19.5 L8,16.5 L21,16.5 Z M6,16.5 L6,19.5 L3,19.5 L3,16.5 L6,16.5 Z M21,10.5 L21,13.5 L8,13.5 L8,10.5 L21,10.5 Z M6,10.5 L6,13.5 L3,13.5 L3,10.5 L6,10.5 Z M21,4.5 L21,7.5 L8,7.5 L8,4.5 L21,4.5 Z M6,4.5 L6,7.5 L3,7.5 L3,4.5 L6,4.5 Z" id="Shape" fill="current" fill-rule="nonzero"></path>
    </g>
</svg>
