<?xml version="1.0" encoding="UTF-8"?>
<svg width="24px" height="24px" viewBox="0 0 24 24" version="1.1" xmlns="http://www.w3.org/2000/svg" xmlns:xlink="http://www.w3.org/1999/xlink">
    <title>Monetization</title>
    <g id="Monetization" stroke="none" stroke-width="1" fill="none" fill-rule="evenodd">
        <path d="M12,2 C17.52,2 22,6.48 22,12 C22,17.52 17.52,22 12,22 C6.48,22 2,17.52 2,12 C2,6.48 6.48,2 12,2 Z M13.425,5 L11.895,5 L11.895,6.65 C11.005,6.75 10.3,7.05 9.78,7.55 C9.26,8.05 9,8.69 9,9.47 C9,10.2 9.2025,10.775 9.6075,11.195 C10.0125,11.615 10.56,11.985 11.25,12.305 C11.33,12.345 11.47,12.4075 11.67,12.4925 C11.87,12.5775 12.01,12.6375 12.09,12.6725 C12.17,12.7075 12.2875,12.765 12.4425,12.845 C12.5975,12.925 12.71,12.99 12.78,13.04 C12.85,13.09 12.935,13.155 13.035,13.235 C13.135,13.315 13.2075,13.3925 13.2525,13.4675 C13.2975,13.5425 13.3375,13.6275 13.3725,13.7225 C13.4075,13.8175 13.425,13.92 13.425,14.03 C13.425,14.41 13.285,14.7125 13.005,14.9375 C12.725,15.1625 12.355,15.275 11.895,15.275 C10.9677273,15.275 10.1065702,15.0188017 9.31152893,14.506405 L9.075,14.345 L9.075,16.28 C9.565,16.56 10.1583594,16.748125 10.8550781,16.844375 L11.16,16.88 L11.16,18.53 L12.675,18.53 L12.675,16.865 C13.515,16.745 14.1825,16.4275 14.6775,15.9125 C15.1725,15.3975 15.42,14.75 15.42,13.97 C15.42,13.55 15.35,13.1725 15.21,12.8375 C15.07,12.5025 14.8575,12.2175 14.5725,11.9825 C14.2875,11.7475 14.02,11.56 13.77,11.42 C13.52,11.28 13.205,11.125 12.825,10.955 C12.515,10.815 12.2825,10.705 12.1275,10.625 C11.9725,10.545 11.795,10.4375 11.595,10.3025 C11.395,10.1675 11.2525,10.0275 11.1675,9.8825 C11.0825,9.7375 11.04,9.575 11.04,9.395 C11.04,9.065 11.1725,8.795 11.4375,8.585 C11.7025,8.375 12.07,8.27 12.54,8.27 C13.2955556,8.27 14.0116049,8.44777778 14.6881481,8.80333333 L14.94,8.945 L14.94,7.115 C14.5816667,6.94 14.17125,6.81013889 13.70875,6.72541667 L13.425,6.68 L13.425,5 Z" id="Combined-Shape" fill="#000000"></path>
    </g>
</svg>