<?xml version="1.0" encoding="UTF-8"?>
<svg viewBox="0 0 24 24" version="1.1" xmlns="http://www.w3.org/2000/svg" xmlns:xlink="http://www.w3.org/1999/xlink">
    <g id="atoms/icons/procore" stroke="none" stroke-width="1" fill-rule="evenodd">
        <path d="M18.1578947,3.63 C19.7275461,3.63 21,4.90245387 21,6.47210526 L21,9.78789474 L16.9087895,9.78789474 L15.2473145,6.85049412 L9.08980584,6.79732771 L5.96485907,12.1024346 L8.99657891,17.4621375 L15.1540876,17.5153039 L16.9149474,14.5247368 L21,14.5247368 L21,17.8405263 C21,19.4101777 19.7275461,20.6826316 18.1578947,20.6826316 L5.84210526,20.6826316 C4.27245387,20.6826316 3,19.4101777 3,17.8405263 L3,6.47210526 C3,4.90245387 4.27245387,3.63 5.84210526,3.63 L18.1578947,3.63 Z M10.3965351,9.27070682 L13.7121167,9.29933489 L15.3445813,12.1853287 L13.6619176,15.0419248 L10.346336,15.0132967 L8.71387148,12.1273028 L10.3965351,9.27070682 Z" id="Shape"></path>
    </g>
</svg>