<?xml version="1.0" encoding="UTF-8"?>
<svg width="24px" height="24px" viewBox="0 0 24 24" version="1.1" xmlns="http://www.w3.org/2000/svg" xmlns:xlink="http://www.w3.org/1999/xlink">
    <g id="atoms/icons/project" stroke="none" stroke-width="1" fill="none" fill-rule="evenodd">
        <rect id="Rectangle" x="0" y="0" width="24" height="24"></rect>
        <path d="M19,16 L17,16 L17,11 L11,11 L11,23 L5,23 L5,11 L1,11 L1,5 L5,5 L5,1 L11,1 L11,4.999 L23,5 L23,11 L19,11 L19,16 Z M9,19 L7,19 L7,21 L9,21 L9,19 Z M9,15 L7,15 L7,17 L9,17 L9,15 Z M9,11 L7,11 L7,13 L9,13 L9,11 Z M5,7 L3,7 L3,9 L5,9 L5,7 Z M9,7 L7,7 L7,9 L9,9 L9,7 Z M13,7 L11,7 L11,9 L13,9 L13,7 Z M17,7 L15,7 L15,9 L17,9 L17,7 Z M21,7 L19,7 L19,9 L21,9 L21,7 Z M9,3 L7,3 L7,5 L9,5 L9,3 Z" id="project"></path>
    </g>
</svg>
