<?xml version="1.0" encoding="UTF-8"?>
<svg width="24px" height="24px" viewBox="0 0 24 24" version="1.1" xmlns="http://www.w3.org/2000/svg" xmlns:xlink="http://www.w3.org/1999/xlink">
    <title>Search</title>
    <g id="search" stroke="none" stroke-width="1" fill="none" fill-rule="evenodd">
        <path d="M19.7095199,18.3290367 L16.4116248,15.0754985 C17.3393804,13.9112958 17.8976364,12.4465723 17.8976364,10.8547377 C17.8976364,7.0750776 14.7804844,4 10.9492634,4 C7.11715196,4 4,7.0750776 4,10.8547377 C4,14.6335561 7.11715196,17.7086337 10.9492634,17.7086337 C12.4504111,17.7086337 13.838483,17.230494 14.9763637,16.4291051 L18.3054215,19.7137897 C18.49952,19.9048772 18.7532728,20 19.0079159,20 C19.2616686,20 19.5154213,19.9048772 19.7095199,19.7137897 C20.0968267,19.3316147 20.0968267,18.7120535 19.7095199,18.3290367 L19.7095199,18.3290367 Z M5.98461346,10.8547377 C5.98461346,8.15510075 8.21229532,5.95885726 10.9492634,5.95885726 C13.6862314,5.95885726 15.9121326,8.15510075 15.9121326,10.8547377 C15.9121326,13.5543747 13.6862314,15.7497764 10.9492634,15.7497764 C8.21229532,15.7497764 5.98461346,13.5543747 5.98461346,10.8547377 L5.98461346,10.8547377 Z" id="search-icon" fill="#000000"></path>
    </g>
</svg>