<?xml version="1.0" encoding="UTF-8"?>
<svg width="30px" height="30px" viewBox="0 0 30 30" version="1.1" xmlns="http://www.w3.org/2000/svg" xmlns:xlink="http://www.w3.org/1999/xlink">
    <title>Settings</title>
    <g id="Settings" stroke="none" stroke-width="1" fill="none" fill-rule="evenodd">
        <path d="M15.8100519,1.00006087 C16.6926606,1.00006087 17.4486606,1.63066955 17.6069215,2.49927824 L17.841878,3.79153908 C18.9192693,4.06423473 19.9485736,4.49214777 20.9121388,5.06858254 L21.995617,4.31745212 C22.7047475,3.82745213 23.7188344,3.91997386 24.3263126,4.52806081 L25.4724865,5.67362601 C26.0970083,6.29753904 26.1852691,7.27753902 25.6824865,8.00432162 L24.9319648,9.08779986 C25.5077909,10.0513651 25.9357039,11.0806694 26.2083996,12.1586694 L27.5006604,12.3930172 C28.3692691,12.5506694 28.9998783,13.3066694 28.9998783,14.1898867 L28.9998783,15.8102345 C28.9998783,16.6934519 28.3692691,17.4488432 27.5006604,17.6064954 L26.2083996,17.8414519 C25.9357039,18.9188432 25.5077909,19.9487562 24.9319648,20.9123214 L25.6824865,21.9957996 C26.1852691,22.7219735 26.0970083,23.7025822 25.4724865,24.3264953 L24.3263126,25.4720605 C23.9817909,25.8165822 23.5228344,26.0071039 23.0346605,26.0071039 C22.6621388,26.0071039 22.3030083,25.8944952 21.9962257,25.6826691 L20.9121388,24.9315387 C19.9491823,25.5079735 18.9192693,25.9358865 17.841878,26.2085822 L17.6069215,27.5002343 C17.4486606,28.3694517 16.6926606,29.0000609 15.8100519,29.0000609 L14.1897041,29.0000609 C13.3070954,29.0000609 12.5517042,28.3694517 12.3928346,27.500843 L12.1584868,26.2085822 C11.0804868,25.9358865 10.0511825,25.5079735 9.08822595,24.9315387 L8.00413901,25.6826691 C7.29500859,26.1720604 6.28153034,26.0801474 5.6734434,25.4720605 L4.5278782,24.3264953 C3.90335647,23.7025822 3.8150956,22.7219735 4.31726951,21.9957996 L5.06779124,20.9123214 C4.49196516,19.9487562 4.06405212,18.9188432 3.79196517,17.8414519 L2.49970432,17.6071041 C1.63048695,17.4488432 0.999878261,16.6934519 0.999878261,15.8102345 L0.999878261,14.1898867 C0.999878261,13.3066694 1.63048695,12.5506694 2.49970432,12.3936259 L3.79196517,12.1586694 C4.06405212,11.0806694 4.49196516,10.0513651 5.06779124,9.08779986 L4.31726951,8.00432162 C3.8150956,7.27753902 3.90335647,6.29753904 4.5278782,5.67362601 L5.6734434,4.52806081 C6.28153034,3.91997386 7.29561728,3.82745213 8.00413901,4.31745212 L9.08822595,5.06858254 C10.0511825,4.49214777 11.0810955,4.06423473 12.1584868,3.79153908 L12.3928346,2.49988693 C12.5517042,1.63066955 13.3070954,1.00006087 14.1897041,1.00006087 L15.8100519,1.00006087 Z M15.8100519,2.21745215 L14.1897041,2.21745215 C13.8957041,2.21745215 13.6437041,2.42806085 13.5907476,2.71779997 L13.2845737,4.40206081 C13.2407476,4.64432168 13.0544868,4.8366695 12.814052,4.88840863 C11.6033563,5.14893036 10.4547477,5.62614775 9.39987812,6.30727817 C9.1929216,6.44179991 8.92570421,6.43693034 8.72361726,6.29632165 L7.31083468,5.31875645 C7.07466077,5.15501732 6.73683468,5.18666949 6.53413904,5.38875645 L5.38857384,6.53432164 C5.18039993,6.74249555 5.15118254,7.06936511 5.31857384,7.31101728 L6.29613904,8.72319117 C6.43674773,8.92588682 6.4410086,9.19310421 6.30709556,9.40006073 C5.62657383,10.4543216 5.14935645,11.6035389 4.88822602,12.8136259 C4.83648689,13.0552781 4.64474776,13.2403215 4.4024869,13.285365 L2.71700867,13.5909302 C2.42726954,13.643278 2.21726954,13.895278 2.21726954,14.1898867 L2.21726954,15.8102345 C2.21726954,16.1042345 2.42726954,16.3562345 2.71700867,16.409191 L4.4024869,16.7147563 C4.64474776,16.7597997 4.83648689,16.9448432 4.88822602,17.1864954 C5.14935645,18.3965823 5.62657383,19.5457997 6.30709556,20.6000605 C6.4410086,20.8070171 6.43674773,21.0736257 6.29613904,21.2763214 L5.31857384,22.689104 C5.15118254,22.9307561 5.18039993,23.2576257 5.38857384,23.4657996 L6.53413904,24.6113648 C6.73683468,24.8134518 7.07405207,24.8444952 7.31144337,24.6813648 L8.72361726,23.7037996 C8.82770421,23.6319735 8.94883465,23.5954518 9.06996508,23.5954518 C9.18439986,23.5954518 9.29944334,23.6277127 9.39987812,23.6928431 C10.454139,24.3733648 11.6027476,24.8511909 12.814052,25.1117126 C13.0544868,25.1634518 13.2407476,25.3557996 13.2845737,25.5980605 L13.5907476,27.28293 C13.6437041,27.5720604 13.8957041,27.7826691 14.1897041,27.7826691 L15.8100519,27.7826691 C16.1046606,27.7826691 16.3560519,27.5720604 16.4090084,27.2823213 L16.7151823,25.5980605 C16.7590084,25.3557996 16.9452693,25.1634518 17.1857041,25.1117126 C18.3970084,24.8511909 19.5456171,24.3733648 20.5998779,23.6928431 C20.8068344,23.5577127 21.0746605,23.5631909 21.2767475,23.7037996 L22.6889214,24.6813648 C22.925704,24.8451039 23.2629214,24.8134518 23.465617,24.6113648 L24.6117909,23.4657996 C24.8199648,23.2576257 24.8491822,22.9307561 24.6811822,22.689104 L23.703617,21.2763214 C23.563617,21.0736257 23.5593561,20.8070171 23.6926605,20.6000605 C24.3737909,19.5457997 24.8510083,18.3965823 25.11153,17.1864954 C25.1632692,16.9448432 25.3550083,16.7597997 25.5978778,16.7147563 L27.2827474,16.4085823 C27.5724865,16.3562345 27.7824865,16.1042345 27.7824865,15.8102345 L27.7824865,14.1898867 C27.7824865,13.895278 27.5724865,13.643278 27.2827474,13.5903215 L25.5978778,13.285365 C25.3550083,13.2403215 25.1632692,13.0552781 25.11153,12.8136259 C24.8510083,11.6035389 24.3737909,10.4543216 23.6926605,9.40006073 C23.5593561,9.19310421 23.563617,8.92588682 23.703617,8.72319117 L24.6811822,7.31101728 C24.8491822,7.06936511 24.8199648,6.74249555 24.6117909,6.53432164 L23.465617,5.38875645 C23.2623127,5.18666949 22.9250953,5.15440862 22.6889214,5.31875645 L21.2767475,6.29632165 C21.0746605,6.43693034 20.8074431,6.44179991 20.5998779,6.30727817 C19.5450084,5.62614775 18.3970084,5.14893036 17.1857041,4.88840863 C16.9452693,4.8366695 16.7590084,4.64432168 16.7151823,4.40206081 L16.4090084,2.71719128 C16.3560519,2.42806085 16.1046606,2.21745215 15.8100519,2.21745215 Z M14.9999998,9.52173899 C18.0203475,9.52173899 20.4782605,11.9790433 20.4782605,14.9999998 C20.4782605,18.0209562 18.0203475,20.4782605 14.9999998,20.4782605 C11.979652,20.4782605 9.52173899,18.0209562 9.52173899,14.9999998 C9.52173899,11.9790433 11.979652,9.52173899 14.9999998,9.52173899 Z M14.9999998,10.7391303 C12.6504346,10.7391303 10.7391303,12.6510433 10.7391303,14.9999998 C10.7391303,17.3489562 12.6504346,19.2608693 14.9999998,19.2608693 C17.3495649,19.2608693 19.2608693,17.3489562 19.2608693,14.9999998 C19.2608693,12.6510433 17.3495649,10.7391303 14.9999998,10.7391303 Z" id="Shape" fill="#FFFFFF"></path>
    </g>
</svg>