<?xml version="1.0" encoding="UTF-8"?>
<svg xmlns="http://www.w3.org/2000/svg" xmlns:xlink="http://www.w3.org/1999/xlink" width="24px" height="24px" viewBox="0 0 24 24" version="1.1">
<g id="surface1">
<path fill="#000" style=" stroke:none;fill-rule:nonzero;fill-opacity:1;" d="M 2.972656 9.03125 C 1.328125 9.03125 0 10.359375 0 12 C 0 13.640625 1.328125 14.96875 2.972656 14.96875 C 4.609375 14.96875 5.941406 13.644531 5.941406 12 C 5.941406 10.359375 4.609375 9.03125 2.972656 9.03125 Z M 12.152344 9.03125 C 10.515625 9.03125 9.183594 10.359375 9.183594 12 C 9.183594 13.640625 10.515625 14.96875 12.152344 14.96875 C 13.792969 14.96875 15.125 13.640625 15.125 12 C 15.125 10.359375 13.792969 9.03125 12.152344 9.03125 Z M 21.03125 9.03125 C 19.390625 9.03125 18.058594 10.359375 18.058594 12 C 18.058594 13.640625 19.386719 14.96875 21.03125 14.96875 C 22.667969 14.96875 24 13.640625 24 12 C 24 10.359375 22.667969 9.03125 21.03125 9.03125 Z M 21.03125 9.03125 "/>
</g>
</svg>
