<?xml version="1.0" encoding="UTF-8"?>
<svg width="24px" height="24px" viewBox="0 0 24 24" version="1.1" xmlns="http://www.w3.org/2000/svg" xmlns:xlink="http://www.w3.org/1999/xlink">
    <g id="vip.active" stroke="none" stroke-width="1" fill="none" fill-rule="evenodd">
        <g id="atoms/icons/delete-copy-3" fill="#E9A61F">
            <path d="M18,2 C19.1045695,2 20,2.8954305 20,4 L20,20 C20,21.1045695 19.1045695,22 18,22 L6,22 C4.8954305,22 4,21.1045695 4,20 L4,4 C4,2.8954305 4.8954305,2 6,2 L18,2 Z M15,18 L9,18 L9,19 L15,19 L15,18 Z M17,15 L7,15 L7,16 L17,16 L17,15 Z M12,4 L10.5305369,6.97745751 L7.24471742,7.45491503 L9.62235871,9.77254249 L9.06107374,13.045085 L12,11.5 L14.9389263,13.045085 L14.3776413,9.77254249 L16.7552826,7.45491503 L13.4694631,6.97745751 L12,4 Z" id="Combined-Shape"></path>
        </g>
        <g id="Group-3" transform="translate(13.000000, 13.000000)">
            <circle id="Oval-Copy" fill="#37A66C" cx="5.5" cy="5.5" r="5.5"></circle>
            <g id="atoms/icons/check" fill="#FFFFFF">
                <polygon id="Path-3" points="7.9387254 3.20833333 8.58690662 3.85651455 4.85350585 7.58991532 2.75 5.48640948 3.39818122 4.83822826 4.85334061 6.29342394"></polygon>
            </g>
        </g>
    </g>
</svg>