<?xml version="1.0" encoding="UTF-8"?>
<svg width="24px" height="24px" viewBox="0 0 24 24" version="1.1" xmlns="http://www.w3.org/2000/svg" xmlns:xlink="http://www.w3.org/1999/xlink">
    <g id="atoms/icons/visibility" stroke="none" stroke-width="1" fill="none" fill-rule="evenodd">
        <path d="M12,6 C7.45454545,6 3.57272727,8.76444444 2,12.6666667 C3.57272727,16.5688889 7.45454545,19.3333333 12,19.3333333 C16.5454545,19.3333333 20.4272727,16.5688889 22,12.6666667 C20.4272727,8.76444444 16.5454545,6 12,6 Z M12,17.1111111 C9.49090909,17.1111111 7.45454545,15.12 7.45454545,12.6666667 C7.45454545,10.2133333 9.49090909,8.22222222 12,8.22222222 C14.5090909,8.22222222 16.5454545,10.2133333 16.5454545,12.6666667 C16.5454545,15.12 14.5090909,17.1111111 12,17.1111111 Z M12,10 C10.4909091,10 9.27272727,11.1911111 9.27272727,12.6666667 C9.27272727,14.1422222 10.4909091,15.3333333 12,15.3333333 C13.5090909,15.3333333 14.7272727,14.1422222 14.7272727,12.6666667 C14.7272727,11.1911111 13.5090909,10 12,10 Z" id="icon.eye.habilitar.focus"></path>
    </g>
</svg>