<?xml version="1.0" encoding="UTF-8"?>
<svg width="24px" height="24px" viewBox="0 0 24 24" version="1.1" xmlns="http://www.w3.org/2000/svg" xmlns:xlink="http://www.w3.org/1999/xlink">
    <g id="atoms/icons/visibility.off" stroke="none" stroke-width="1" fill="none" fill-rule="evenodd">
        <path d="M18.4818122,5 L19.6603235,6.1785113 L18.0313249,7.80753053 C19.8062827,8.98936609 21.2010737,10.6780421 22,12.6603235 C20.4272727,16.5625457 16.5454545,19.3269901 12,19.3269901 C10.3866297,19.3269901 8.85686665,18.9787159 7.48429013,18.3549067 L5.51818784,20.3206469 L4.33967654,19.1421356 L5.96867513,17.5131164 C4.1937173,16.3312808 2.79892631,14.6426049 2,12.6603235 C3.57272727,8.75810124 7.45454545,5.9936568 12,5.9936568 C13.6133703,5.9936568 15.1431334,6.34193102 16.5157099,6.96574022 L18.4818122,5 Z M15.724866,10.113501 L14.4173125,11.4221699 C14.6153441,11.791918 14.7272727,12.2130531 14.7272727,12.6603235 C14.7272727,14.135879 13.5090909,15.3269901 12,15.3269901 C11.5642878,15.3269901 11.1528263,15.2276966 10.787934,15.0509318 L9.47993088,16.359035 C10.201321,16.8300758 11.0680519,17.1047679 12,17.1047679 C14.5090909,17.1047679 16.5454545,15.1136568 16.5454545,12.6603235 C16.5454545,11.7131616 16.2419322,10.8348944 15.724866,10.113501 Z M12,8.21587902 C9.49090909,8.21587902 7.45454545,10.2069901 7.45454545,12.6603235 C7.45454545,13.6074854 7.75806779,14.4857525 8.27513397,15.2071459 L9.58268751,13.898477 C9.3846559,13.5287289 9.27272727,13.1075938 9.27272727,12.6603235 C9.27272727,11.1847679 10.4909091,9.9936568 12,9.9936568 C12.4357122,9.9936568 12.8471737,10.0929503 13.212066,10.2697151 L14.5200691,8.96161191 C13.798679,8.49057108 12.9319481,8.21587902 12,8.21587902 Z" id="icon.eye.deshabilitar.focus"></path>
    </g>
</svg>