<?xml version="1.0" encoding="UTF-8"?>
<svg width="24px" height="24px" viewBox="0 0 24 24" version="1.1" xmlns="http://www.w3.org/2000/svg" xmlns:xlink="http://www.w3.org/1999/xlink">
    <g id="atoms/icons/worker" stroke="none" stroke-width="1" fill="none" fill-rule="evenodd">
        <rect id="Rectangle" x="0" y="0" width="24" height="24"></rect>
        <path d="M3.84210114,13.1287644 L3.9920624,13.1428723 L3.9920624,13.1428723 L4.14458873,13.1481449 L5.31235804,13.1481449 L5.29297756,13.1971662 L5.29297756,13.1971662 C5.26561687,13.5950361 5.24661639,13.9978463 5.24433634,14.4105366 L5.26067675,14.5260595 L5.26067675,14.5260595 C5.3663194,15.1203944 5.58862498,15.6144068 5.83449115,15.859893 C5.95495417,15.978836 6.08187736,16.0392575 6.20082034,16.018357 C6.25706176,16.0084767 6.3106431,15.980356 6.35814429,15.9362749 C6.94107893,17.7523405 8.06020702,19.5600459 9.47080242,20.640033 C10.2828828,21.2613486 11.1937657,21.6421181 12.1540498,21.6421181 C12.8916483,21.6421181 13.6003661,21.4148724 14.2574026,21.0276427 C14.473248,20.9010995 14.6841533,20.7555559 14.8893584,20.5967119 C16.2741132,19.5110246 17.3719608,17.7280199 17.9480552,15.9362749 C17.9955564,15.979976 18.0479977,16.0092367 18.1030991,16.018357 C18.1536404,16.0270972 18.2038016,16.019497 18.2554829,16.0027766 C18.3098243,15.9849161 18.3683458,15.9522353 18.4219271,15.9054941 C18.6314074,15.7272697 18.8298317,15.3529484 18.9581384,14.8858885 L19.0086618,14.6803434 C19.0215822,14.6275221 19.0360225,14.5804009 19.0447627,14.5252995 C19.0823837,14.3178143 19.1010042,14.1175493 19.1048042,13.9324846 C19.1096684,13.6819823 19.0848613,13.4582327 19.0356364,13.2762173 L18.9942215,13.1477649 L20.4013968,13.1470049 L20.4013968,13.1470049 C20.4219173,13.509914 20.3979767,13.9229844 20.3212148,14.3569553 C20.1160096,15.503064 19.6151571,16.3998866 19.134825,16.5404901 C18.5150294,18.2189922 17.5323248,19.8537933 16.3197143,21.0641236 C15.5984562,21.7850017 14.792456,22.355016 13.9324944,22.6977846 C13.3613401,22.9246503 12.7643451,23.0500535 12.1532898,23.0500535 C11.5388143,23.0500535 10.9418193,22.9227503 10.370665,22.6977846 C9.54034417,22.3671763 8.7605646,21.8233827 8.05830697,21.1351854 C6.81491576,19.922955 5.80903051,18.2630733 5.1751746,16.5545504 C4.67432203,16.4846287 4.13508849,15.5577854 3.92114312,14.3588553 C3.84248115,13.9176642 3.81930057,13.4973737 3.84210114,13.1287644 Z M13.3693203,1 C13.875493,1 14.3241056,1.23947441 14.610165,1.61038272 L14.6993537,1.73873854 L13.9617552,5.92834371 C13.9032337,6.25401188 14.1205991,6.56333965 14.4462673,6.62186111 C14.4808482,6.62832128 14.5158091,6.63098134 14.5503899,6.63098134 C14.8040674,6.63098134 15.031923,6.46944445 15.1151894,6.22964123 L15.1394047,6.13620892 L15.786561,2.46873687 C18.2411439,3.71366078 19.9510868,6.21634111 20.0623556,9.13029572 L20.0681284,9.43317168 L20.3793562,9.43317168 C21.0120721,9.43317168 21.525085,9.94504453 21.525085,10.5777604 C21.525085,11.1682952 21.0781938,11.6542244 20.5041868,11.7163904 L20.3793562,11.7231092 L4.14458873,11.7231092 C3.51225286,11.7231092 3,11.2100963 3,10.5777604 C3,9.98758026 3.44622916,9.50200577 4.02014782,9.43988552 L4.14496874,9.43317168 L4.45695657,9.43317168 C4.45695657,6.49185985 6.0843698,3.93298835 8.48653541,2.60269607 L8.73776402,2.46949689 L9.38454026,6.13658893 C9.43546154,6.42691622 9.6889279,6.63136135 9.97393505,6.63136135 C10.0085159,6.63136135 10.0430968,6.62870129 10.0784377,6.62224112 C10.3679205,6.57022204 10.5715305,6.32003502 10.5726357,6.03635295 L10.5633298,5.92872372 L9.82497131,1.73911855 C10.0739536,1.33999453 10.4965394,1.06060772 10.9877355,1.0087216 L11.1538647,1 L13.3693203,1 Z" id="worker" fill="#FFF"></path>
    </g>
</svg>
