<svg version="1" xmlns="http://www.w3.org/2000/svg" width="666.667" height="666.667" viewBox="0 0 500.000000 500.000000"><path d="M223.5 21.1c-54.7 6.3-103.7 30-140.9 68.3-34.3 35.3-55.5 78.3-63.2 128.1-2.4 15.3-2.3 49.9 0 65C32.5 365.8 86 433.1 163.5 463.8c39.5 15.6 84.5 19.7 127 11.6 42.5-8.2 82.9-29 114.4-59 38-36.2 61.7-82 69.7-134.9 2.4-16.3 2.4-47.5 0-63.5-4.2-27.7-11.5-50.5-23.7-73.8-23-44.2-58.6-78.9-103.4-100.7-24.4-11.9-45-18.2-71.3-21.5-15.9-2.1-39.2-2.5-52.7-.9zM281 53.5c61.5 11.1 114.5 50.2 142.7 105.1l5.1 9.9-43.6.1c-44.3.1-67.4 1.4-103.2 5.8-6.3.8-11.7 1.3-11.9 1.1-.1-.2.9-1.9 2.3-3.7 10.8-14.2 8.5-37.4-5-49.8-5.5-5.1-11.1-7.8-19.5-9.6-16.7-3.5-33.7 5.3-41.7 21.6-2.4 4.9-2.7 6.6-2.7 15.5s.3 10.7 2.9 16.3c2 4.3 4.7 8 8.8 11.7 3.6 3.4 5.4 5.7 4.6 5.9-.7.3-6.2 1.4-12.3 2.6-17.6 3.3-41.9 9.6-56.8 14.5-49.9 16.6-80.6 37.2-97.2 65.3l-4.3 7.3-.8-7.8c-1.2-13.5.3-39.3 3.1-53.3 4.2-20.3 8.4-32.8 17.2-50.5 15.9-31.9 39.1-58.1 69.3-78.2 23.4-15.6 53-26.7 81.5-30.8 13.6-1.9 48.4-1.4 61.5 1zM435.7 187c12 35.8 13.5 74.7 4.2 111.9-15.9 63.9-65.2 117.3-128.4 139-92.2 31.9-194.1-8.5-240.4-95.1-2.8-5.2-5.1-10.2-5.1-11.1 0-2.1 4.9-11 11.9-21.7s26.3-30.4 39.1-39.7c45.7-33.6 117.8-61.1 210.1-80.2 30.5-6.3 93.5-16.2 100.9-15.8l3.5.2 4.2 12.5z"/><path d="M250 271.1c-8.4 1.4-18 6.4-23.8 12.2-9.3 9.5-12.9 19.8-11.9 34.2 1.5 23.1 17.5 38.7 41.2 40.2 12.6.8 26.6-3.9 33.5-11.2 2-2.1 1.9-2.1-4.9-8.9l-6.8-6.8-2.7 2.7c-3.8 3.8-8.7 5.5-15.6 5.5-13.7 0-22.8-9.9-22.9-25-.1-10.9 5.5-19.8 14.9-23.8 2.2-.9 5.7-1.3 10.2-1 5.6.3 7.5.9 11.1 3.5l4.5 3.1 6.7-6.8 6.7-6.7-3.9-3.2c-4.4-3.6-12.4-6.9-20.3-8.2-6.4-1-8.5-1-16 .2zM147 314.5v41.6l9.8-.3 9.7-.3.3-16.3.2-16.2h32v-16h-32v-17h34v-17h-54v41.5zM319.7 312.7c-9.2 21.9-16.9 40.6-17.3 41.5-.6 1.6.3 1.8 10.3 1.8h10.8l3.1-8.3 3.1-8.2 15.5-.3c11.7-.2 15.8.1 16.5 1 .6.7 2.2 4.6 3.7 8.5l2.8 7.3h11c9.2 0 10.9-.2 10.6-1.5-.2-.8-7.7-19.5-16.8-41.5l-16.5-39.9-10-.1h-10.1l-16.7 39.7zm31.7-2.4L356 323h-10.1c-7.5 0-10-.3-9.7-1.3 1.4-5.4 9.4-25.4 10-24.9.4.4 2.7 6.4 5.2 13.5z"/></svg>